<?xml version="1.0" standalone="no"?>
<!DOCTYPE svg PUBLIC "-//W3C//DTD SVG 20010904//EN"
 "http://www.w3.org/TR/2001/REC-SVG-20010904/DTD/svg10.dtd">
<svg version="1.0" xmlns="http://www.w3.org/2000/svg"
 width="776.000000pt" height="776.000000pt" viewBox="0 0 776.000000 776.000000"
 preserveAspectRatio="xMidYMid meet">
<metadata>
Created by potrace 1.11, written by Peter Selinger 2001-2013
</metadata>
<g transform="translate(0.000000,776.000000) scale(0.100000,-0.100000)"
fill="#000000" stroke="none">
<path d="M3553 5664 c-7 -3 -34 -62 -62 -132 -84 -214 -155 -396 -256 -656
-53 -137 -111 -288 -130 -335 -18 -47 -192 -493 -385 -991 -193 -498 -382
-984 -420 -1080 -37 -96 -71 -185 -75 -197 l-6 -23 294 0 295 0 20 48 c11 26
80 200 152 387 73 187 141 361 152 388 l20 47 684 0 c667 0 684 0 694 -19 5
-11 76 -194 156 -408 80 -213 152 -400 160 -415 l15 -28 294 0 c229 0 295 3
295 13 0 6 -38 109 -84 227 -46 118 -171 436 -276 705 -105 270 -292 747 -415
1060 -123 314 -294 750 -380 970 -86 220 -163 410 -171 423 -14 22 -15 22
-287 21 -149 0 -277 -3 -284 -5z m322 -751 c88 -298 315 -916 441 -1203 19
-44 32 -85 29 -90 -4 -6 -190 -10 -506 -10 -401 0 -501 3 -505 13 -2 7 21 74
51 148 161 387 356 929 415 1157 12 45 27 82 34 82 6 0 25 -44 41 -97z"/>
</g>
</svg>
