<?xml version="1.0" standalone="no"?>
<!DOCTYPE svg PUBLIC "-//W3C//DTD SVG 20010904//EN"
 "http://www.w3.org/TR/2001/REC-SVG-20010904/DTD/svg10.dtd">
<svg version="1.0" xmlns="http://www.w3.org/2000/svg"
 width="2048.000000pt" height="2048.000000pt" viewBox="0 0 2048.000000 2048.000000"
 preserveAspectRatio="xMidYMid meet">
<metadata>
Created by potrace 1.11, written by Peter Selinger 2001-2013
</metadata>
<g transform="translate(0.000000,2048.000000) scale(0.100000,-0.100000)"
fill="#000000" stroke="none">
<path d="M11980 16674 c-181 -48 -302 -186 -304 -349 -1 -110 31 -181 124
-275 91 -93 175 -138 435 -234 280 -104 331 -124 424 -169 129 -64 210 -112
266 -157 28 -23 59 -49 70 -58 11 -9 61 -52 110 -96 166 -146 327 -237 503
-282 89 -22 119 -26 215 -22 132 4 193 27 269 99 69 65 103 144 103 239 0 154
-100 292 -320 440 -148 100 -216 150 -289 214 -133 117 -175 150 -283 222
-114 76 -233 136 -403 204 -52 21 -147 59 -210 85 -116 47 -271 98 -410 133
-91 24 -225 26 -300 6z"/>
<path d="M5950 16523 c-200 -19 -363 -61 -778 -198 -174 -57 -397 -125 -494
-149 -97 -25 -213 -60 -256 -79 -164 -71 -277 -191 -300 -317 -22 -118 7 -216
90 -306 154 -167 386 -186 818 -69 263 72 363 102 565 170 94 31 213 70 265
85 280 82 455 196 526 345 25 52 28 72 29 150 0 78 -4 97 -26 140 -32 62 -81
118 -135 155 -71 49 -209 83 -304 73z"/>
<path d="M12459 14755 c-64 -13 -156 -47 -192 -70 -19 -13 -93 -83 -117 -111
-17 -21 -70 -122 -70 -134 0 -5 -11 -34 -25 -65 -13 -30 -24 -58 -24 -61 1
-17 -48 -43 -89 -48 -26 -3 -73 -8 -105 -11 -110 -12 -244 -97 -312 -200 -53
-79 -100 -214 -121 -344 -8 -53 -19 -121 -24 -151 -11 -61 -36 -352 -44 -505
-2 -55 -10 -122 -16 -150 -6 -27 -13 -61 -15 -75 -12 -74 -18 -88 -48 -99 -21
-8 -101 27 -148 66 -37 30 -176 94 -250 117 -120 36 -347 83 -464 97 -119 14
-718 20 -860 9 -169 -13 -245 -21 -370 -36 -169 -21 -182 -22 -255 -29 -150
-15 -401 -62 -540 -102 -47 -13 -105 -28 -130 -33 -25 -6 -76 -19 -115 -30
-38 -12 -135 -38 -215 -60 -259 -69 -359 -108 -451 -176 -26 -18 -51 -34 -56
-34 -6 0 -18 -9 -28 -20 -10 -11 -24 -20 -32 -20 -7 0 -13 -6 -13 -14 0 -8 -5
-18 -12 -22 -7 -4 -8 -3 -4 4 4 7 1 12 -9 12 -9 0 -13 -4 -10 -10 3 -5 -4 -10
-15 -10 -15 0 -20 5 -17 14 3 8 1 17 -6 20 -7 2 -3 5 8 5 16 1 17 3 6 10 -12
8 -12 12 -2 25 10 11 10 16 2 16 -8 0 -9 6 -3 18 4 9 8 285 7 612 -1 539 -2
603 -19 675 -65 284 -211 433 -481 491 -11 3 -63 11 -115 19 -174 28 -254 47
-405 95 -244 79 -402 118 -690 169 -201 35 -330 48 -570 56 -77 3 -257 12
-400 21 -691 41 -1038 47 -1515 24 -222 -11 -351 -27 -530 -66 -222 -48 -319
-81 -628 -213 -46 -19 -119 -38 -195 -51 -185 -31 -287 -91 -371 -218 -81
-123 -105 -266 -105 -637 -1 -186 -6 -284 -18 -345 -5 -26 -7 -98 -3 -115 5
-22 -1 -46 -10 -40 -5 3 -10 -1 -10 -9 0 -22 -23 -20 -38 4 -7 11 -21 20 -32
20 -11 0 -20 3 -20 8 0 4 -17 18 -38 32 -20 14 -59 42 -87 62 -27 21 -56 38
-62 38 -7 0 -13 5 -13 10 0 6 -6 10 -12 10 -7 0 -26 7 -42 15 -33 17 -228 79
-300 95 -97 21 -219 24 -297 6 -41 -10 -88 -25 -105 -34 -17 -9 -54 -29 -82
-44 -28 -15 -58 -25 -66 -22 -14 5 -16 -26 -16 -284 0 -275 1 -290 18 -285 10
2 41 -11 72 -32 87 -59 124 -73 325 -127 105 -28 222 -59 260 -70 158 -43 270
-33 379 33 36 22 69 39 73 39 5 0 19 10 33 23 32 29 69 40 84 24 13 -15 16
-26 27 -92 4 -27 10 -66 13 -85 3 -19 8 -53 11 -75 3 -22 5 -251 5 -510 0
-665 21 -802 152 -1005 133 -204 381 -344 900 -504 131 -41 206 -58 448 -102
47 -8 112 -21 145 -29 33 -8 87 -18 120 -24 326 -55 366 -63 725 -145 135 -30
286 -60 335 -65 50 -6 297 -8 555 -7 480 4 527 7 790 56 242 46 405 114 875
369 242 132 354 245 512 519 174 300 212 409 289 817 4 22 8 45 10 50 7 28 27
122 28 140 2 11 6 28 11 38 4 10 5 33 2 52 -3 19 -1 37 5 41 5 4 7 20 4 36 -4
23 0 35 21 55 l26 27 25 -30 c13 -16 21 -22 17 -14 -6 11 -5 12 3 5 7 -6 13
-23 14 -37 1 -15 4 -25 6 -24 2 2 14 -6 26 -18 59 -54 75 -65 126 -90 88 -43
179 -48 330 -21 47 8 123 22 168 30 85 16 131 27 457 116 245 66 502 115 715
134 36 3 148 16 250 27 155 18 240 22 520 22 344 0 409 -6 590 -49 224 -53
248 -56 402 -60 129 -2 162 -6 187 -21 55 -33 76 -100 96 -310 33 -353 130
-538 450 -860 150 -150 232 -221 355 -305 197 -136 571 -339 776 -423 97 -40
233 -79 534 -155 161 -41 205 -51 325 -71 66 -12 127 -23 135 -25 8 -2 114
-13 235 -25 121 -11 252 -24 290 -29 92 -12 301 -11 395 0 260 33 623 193
1130 500 120 73 181 115 444 312 152 113 179 134 290 232 50 44 156 135 236
201 80 67 165 143 189 170 91 102 152 212 189 339 28 97 31 116 52 410 10 141
27 209 65 267 52 78 90 83 225 32 71 -26 83 -28 240 -28 151 1 191 5 475 53
171 28 337 56 370 61 230 39 384 61 540 80 99 12 243 30 320 42 77 11 158 22
180 25 22 2 85 10 140 18 148 21 297 33 518 41 l197 6 0 416 0 415 -243 -6
c-134 -4 -279 -12 -323 -17 -43 -5 -101 -12 -129 -15 -71 -8 -95 -11 -330 -44
-115 -17 -273 -37 -350 -46 -77 -9 -180 -22 -230 -30 -49 -7 -128 -19 -175
-25 -104 -15 -382 -60 -585 -95 -82 -15 -182 -31 -221 -36 -39 -5 -120 -18
-180 -29 -187 -35 -221 -29 -257 43 -32 64 -43 111 -52 207 -41 448 -279 724
-820 950 -425 177 -653 246 -905 275 -204 23 -207 24 -330 35 -63 6 -121 13
-127 15 -7 2 -64 7 -125 10 -62 3 -122 8 -133 10 -11 2 -157 5 -325 6 -168 1
-354 6 -415 10 -60 5 -186 10 -280 13 -365 9 -639 27 -1045 71 -155 16 -360
17 -441 0z m-106 -751 c16 -2 65 -13 110 -23 99 -24 267 -47 397 -56 52 -4 97
-8 100 -10 3 -2 41 -6 85 -10 44 -4 82 -9 85 -10 3 -2 93 -6 200 -9 416 -13
542 -17 559 -21 9 -2 57 -6 107 -10 49 -4 100 -9 114 -11 14 -3 126 -7 250 -9
124 -3 326 -7 450 -9 124 -3 252 -10 285 -15 33 -6 155 -20 270 -31 181 -17
291 -32 394 -54 90 -20 433 -151 571 -219 84 -42 173 -124 204 -190 52 -110
44 -219 -43 -567 -86 -348 -90 -370 -106 -565 -24 -290 -53 -339 -365 -625
-157 -143 -198 -177 -398 -321 -217 -157 -384 -259 -588 -363 -171 -86 -206
-103 -295 -136 -129 -47 -300 -61 -494 -40 -113 13 -163 18 -245 25 -179 17
-451 73 -710 146 -143 40 -207 64 -329 121 -57 26 -104 48 -105 48 -4 0 -245
139 -272 157 -14 9 -39 24 -54 32 -52 29 -225 168 -295 237 -159 158 -216 281
-215 471 0 109 8 152 73 399 55 206 65 276 72 504 8 260 15 397 25 475 5 39
12 95 15 125 3 30 10 82 15 115 5 33 12 119 16 190 4 72 8 146 9 165 1 19 5
43 9 53 5 9 5 24 2 33 -5 14 -4 15 9 4 12 -10 16 -9 21 4 4 11 12 15 23 10 9
-3 29 -8 44 -10z m-106 -36 c-3 -8 -6 -5 -6 6 -1 11 2 17 5 13 3 -3 4 -12 1
-19z m-8032 -238 c165 -15 213 -20 295 -30 78 -11 340 -55 375 -64 104 -27
439 -88 555 -101 80 -9 192 -23 250 -31 215 -30 284 -33 495 -24 52 2 108 -1
131 -8 53 -15 109 -76 125 -134 11 -41 14 -358 4 -432 -2 -17 -6 -71 -10 -121
-3 -49 -8 -103 -10 -120 -8 -50 -36 -274 -46 -360 -9 -86 -15 -137 -24 -230
-19 -193 -29 -268 -55 -431 -17 -99 -37 -207 -45 -240 -35 -136 -101 -223
-232 -307 -92 -60 -442 -240 -527 -272 -210 -79 -405 -102 -871 -103 -353 0
-493 12 -671 58 -156 40 -505 112 -699 143 -134 22 -487 92 -590 118 -115 29
-303 96 -350 124 -55 34 -76 53 -113 104 -62 86 -63 94 -67 657 -2 282 -6 550
-9 595 -8 110 -17 218 -21 249 -2 14 -9 126 -16 250 -10 192 -8 362 4 420 22
100 54 144 114 153 31 5 109 -6 208 -30 78 -18 318 6 491 51 71 18 326 62 409
71 33 3 92 11 130 17 223 35 558 47 770 28z"/>
<path d="M7843 11481 c-99 -33 -184 -90 -233 -156 -47 -63 -120 -204 -155
-300 -15 -38 -33 -83 -40 -100 -8 -16 -36 -79 -63 -140 -27 -60 -82 -180 -122
-265 -148 -318 -194 -452 -273 -795 -90 -384 -138 -758 -131 -1012 5 -194 50
-392 121 -528 53 -102 166 -261 279 -391 29 -34 81 -99 115 -145 34 -46 89
-115 122 -153 130 -146 424 -360 629 -456 219 -102 349 -130 648 -135 261 -5
440 20 670 96 309 102 625 288 758 446 194 232 208 473 37 637 -77 73 -85 78
-177 95 -119 22 -272 -30 -426 -144 -286 -209 -529 -297 -822 -298 -181 0
-298 33 -458 130 -92 56 -109 69 -198 160 -70 70 -100 106 -275 329 -156 198
-197 317 -186 529 4 61 9 120 11 132 3 12 12 73 21 135 9 62 29 176 45 253 79
379 137 553 302 910 107 230 119 258 173 396 78 200 97 277 98 389 1 115 -16
178 -72 258 -40 56 -103 104 -176 133 -53 21 -139 17 -222 -10z"/>
<path d="M8165 4445 c-66 -7 -190 -16 -275 -20 -141 -5 -283 -18 -335 -30
-102 -22 -190 -71 -265 -146 -53 -53 -70 -78 -89 -133 -30 -85 -26 -178 10
-252 57 -117 210 -224 364 -255 77 -15 492 -19 555 -5 19 4 123 9 230 11 167
3 217 0 350 -20 85 -13 193 -35 240 -49 237 -68 233 -67 349 -81 50 -6 181 19
231 45 66 34 133 102 169 175 32 63 33 69 29 158 -6 111 -24 157 -98 245 -55
66 -142 133 -225 174 -135 68 -368 128 -605 158 -91 12 -176 23 -190 26 -65
12 -335 12 -445 -1z"/>
</g>
</svg>
